# xmcd CD database file
#
# Track frame offsets:
#	150
#	20023
#	41984
#	65379
#	83212
#	97484
#	123254
#	136841
#	155414
#	172198
#	201902
#
# Disc length: 2955 seconds
#
# Revision: 0
# Processed by: cddbd v1.5.2PL0 Copyright (c) Steve Scherf et al.
# Submitted via: CDex 1.51
#
DISCID=a00b890b
DTITLE=Big Mo And The Full Moon Band - Mo Love
DYEAR=2001
DGENRE=Blues
TTITLE0=I Think I Found Heaven
TTITLE1=Step On The Plate
TTITLE2=Hold Me Tight
TTITLE3=Hey Hey
TTITLE4=Down South
TTITLE5=It´s Alright Boy
TTITLE6=Tonight
TTITLE7=Blues For Me
TTITLE8=In The Wind
TTITLE9=Love You For Your Body
TTITLE10=Coming Home
EXTD=YEAR: 2001
EXTT0=
EXTT1=
EXTT2=
EXTT3=
EXTT4=
EXTT5=
EXTT6=
EXTT7=
EXTT8=
EXTT9=
EXTT10=
PLAYORDER=
